<svg xmlns="http://www.w3.org/2000/svg" width="28" height="28" viewBox="0 0 28 28" fill="none">
  <g clip-path="url(#clip0_104_301)">
    <path d="M27.3616 14.3102C27.3616 13.1624 27.2685 12.3248 27.0669 11.4562H13.96V16.6368H21.6535C21.4984 17.9243 20.6608 19.8632 18.7995 21.1661L18.7734 21.3395L22.9175 24.5499L23.2046 24.5786C25.8415 22.1433 27.3616 18.5602 27.3616 14.3102Z" fill="#FBFBFB"/>
    <path d="M13.96 27.96C17.7291 27.96 20.8934 26.7191 23.2046 24.5786L18.7994 21.1661C17.6206 21.9882 16.0384 22.5621 13.96 22.5621C10.2684 22.5621 7.13514 20.1269 6.01823 16.761L5.85452 16.7749L1.54537 20.1098L1.48901 20.2665C3.78463 24.8267 8.50002 27.96 13.96 27.96Z" fill="#FBFBFB"/>
    <path d="M6.01825 16.761C5.72355 15.8924 5.55299 14.9616 5.55299 14C5.55299 13.0383 5.72355 12.1076 6.00275 11.239L5.99494 11.054L1.63179 7.66555L1.48903 7.73345C0.542895 9.62583 0 11.7509 0 14C0 16.2491 0.542895 18.3741 1.48903 20.2664L6.01825 16.761Z" fill="#FBFBFB"/>
    <path d="M13.96 5.43783C16.5813 5.43783 18.3496 6.57014 19.3578 7.51638L23.2976 3.6696C20.878 1.4205 17.7291 0.0400009 13.96 0.0400009C8.50002 0.0400009 3.78463 3.17322 1.48901 7.73346L6.00273 11.239C7.13514 7.87311 10.2684 5.43783 13.96 5.43783Z" fill="#FBFBFB"/>
  </g>
  <defs>
    <clipPath id="clip0_104_301">
      <rect width="27.3616" height="28" fill="white"/>
    </clipPath>
  </defs>
</svg>