<svg xmlns="http://www.w3.org/2000/svg" width="16" height="17" viewBox="0 0 16 17" fill="none">
  <g clip-path="url(#clip0_104_344)">
    <path d="M8.84 2.50001C5.44667 2.40667 2.66667 5.13334 2.66667 8.50001H1.47333C1.17333 8.50001 1.02667 8.86001 1.24 9.06667L3.1 10.9333C3.23333 11.0667 3.44 11.0667 3.57333 10.9333L5.43333 9.06667C5.64 8.86001 5.49333 8.50001 5.19333 8.50001H4C4 5.90001 6.12 3.80001 8.73333 3.83334C11.2133 3.86667 13.3 5.95334 13.3333 8.43334C13.3667 11.04 11.2667 13.1667 8.66667 13.1667C7.59333 13.1667 6.6 12.8 5.81333 12.18C5.54667 11.9733 5.17333 11.9933 4.93333 12.2333C4.65333 12.5133 4.67333 12.9867 4.98667 13.2267C6 14.0267 7.27333 14.5 8.66667 14.5C12.0333 14.5 14.76 11.72 14.6667 8.32667C14.58 5.20001 11.9667 2.58667 8.84 2.50001ZM8.5 5.83334C8.22667 5.83334 8 6.06001 8 6.33334V8.78667C8 9.02001 8.12666 9.24001 8.32666 9.36001L10.4067 10.5933C10.6467 10.7333 10.9533 10.6533 11.0933 10.42C11.2333 10.18 11.1533 9.87334 10.92 9.73334L9 8.59334V6.32667C9 6.06001 8.77333 5.83334 8.5 5.83334Z" fill="black"/>
  </g>
  <defs>
    <clipPath id="clip0_104_344">
      <rect width="16" height="16" fill="white" transform="translate(0 0.5)"/>
    </clipPath>
  </defs>
</svg>