<svg xmlns="http://www.w3.org/2000/svg" width="16" height="16" viewBox="0 0 16 16" fill="none">
  <g clip-path="url(#clip0_104_311)">
    <path d="M7.99998 1.33333C5.41998 1.33333 3.33331 3.41999 3.33331 5.99999C3.33331 9.49999 7.99998 14.6667 7.99998 14.6667C7.99998 14.6667 12.6666 9.49999 12.6666 5.99999C12.6666 3.41999 10.58 1.33333 7.99998 1.33333ZM4.66665 5.99999C4.66665 4.15999 6.15998 2.66666 7.99998 2.66666C9.83998 2.66666 11.3333 4.15999 11.3333 5.99999C11.3333 7.91999 9.41331 10.7933 7.99998 12.5867C6.61331 10.8067 4.66665 7.89999 4.66665 5.99999Z" fill="white"/>
    <path d="M7.99998 7.66666C8.92045 7.66666 9.66665 6.92047 9.66665 5.99999C9.66665 5.07952 8.92045 4.33333 7.99998 4.33333C7.07951 4.33333 6.33331 5.07952 6.33331 5.99999C6.33331 6.92047 7.07951 7.66666 7.99998 7.66666Z" fill="white"/>
  </g>
  <defs>
    <clipPath id="clip0_104_311">
      <rect width="16" height="16" fill="white"/>
    </clipPath>
  </defs>
</svg>