<svg xmlns="http://www.w3.org/2000/svg" width="28" height="28" viewBox="0 0 28 28" fill="none">
  <g clip-path="url(#clip0_1_1342)">
    <path d="M13.8739 0C6.2115 0 -0.00012207 6.21162 -0.00012207 13.8741C-0.00012207 21.5365 6.2115 27.7481 13.8739 27.7481C21.5364 27.7481 27.748 21.5365 27.748 13.8741C27.748 6.21162 21.5364 0 13.8739 0ZM19.9121 20.1351C19.7357 20.4369 19.4182 20.6052 19.0921 20.6053C18.9295 20.6053 18.7648 20.5634 18.6143 20.4755C16.1211 19.0185 13.2409 18.7843 11.2632 18.8444C9.07247 18.9111 7.46592 19.3435 7.44996 19.3479C6.94496 19.4859 6.42309 19.1887 6.28456 18.6838C6.1461 18.1789 6.44223 17.6574 6.94697 17.5183C7.01938 17.4984 8.74817 17.0288 11.1522 16.9495C12.5683 16.9028 13.9315 17.0015 15.2035 17.2428C16.8146 17.5484 18.2842 18.0849 19.5717 18.8373C20.0241 19.1016 20.1765 19.6828 19.9121 20.1351ZM21.676 16.4717C21.467 16.8293 21.091 17.0286 20.7046 17.0287C20.5121 17.0287 20.3169 16.9792 20.1386 16.875C17.1855 15.1491 13.7736 14.8718 11.4311 14.943C8.83609 15.0219 6.93308 15.5342 6.9142 15.5394C6.31616 15.7026 5.69787 15.3508 5.53378 14.7527C5.36975 14.1546 5.72058 13.5369 6.31843 13.3722C6.40421 13.3486 8.45197 12.7923 11.2996 12.6984C12.9771 12.6431 14.5918 12.76 16.0985 13.0458C18.0069 13.4079 19.7477 14.0433 21.2727 14.9345C21.8086 15.2476 21.9892 15.9359 21.676 16.4717ZM22.7603 13.1409C22.524 13.1409 22.2847 13.0801 22.066 12.9523C15.045 8.84912 5.93743 11.2885 5.84626 11.3136C5.11222 11.5159 4.35339 11.0848 4.15121 10.3508C3.94896 9.61684 4.38006 8.85795 5.11404 8.65577C5.21922 8.62676 7.73104 7.9445 11.224 7.82933C13.2817 7.76159 15.2622 7.90486 17.1103 8.25543C19.4512 8.6995 21.5865 9.4789 23.457 10.5721C24.1143 10.9562 24.3358 11.8004 23.9517 12.4577C23.6954 12.8963 23.2341 13.1409 22.7603 13.1409Z" fill="white"/>
  </g>
  <defs>
    <clipPath id="clip0_1_1342">
      <rect width="27.7481" height="27.7481" fill="white"/>
    </clipPath>
  </defs>
</svg>