<svg xmlns="http://www.w3.org/2000/svg" width="16" height="16" viewBox="0 0 16 16" fill="none">
  <g clip-path="url(#clip0_104_322)">
    <path d="M7.99331 1.33333C4.31331 1.33333 1.33331 4.31999 1.33331 7.99999C1.33331 11.68 4.31331 14.6667 7.99331 14.6667C11.68 14.6667 14.6666 11.68 14.6666 7.99999C14.6666 4.31999 11.68 1.33333 7.99331 1.33333ZM7.99998 13.3333C5.05331 13.3333 2.66665 10.9467 2.66665 7.99999C2.66665 5.05333 5.05331 2.66666 7.99998 2.66666C10.9466 2.66666 13.3333 5.05333 13.3333 7.99999C13.3333 10.9467 10.9466 13.3333 7.99998 13.3333ZM7.85331 4.66666H7.81331C7.54665 4.66666 7.33331 4.87999 7.33331 5.14666V8.29333C7.33331 8.52666 7.45331 8.74666 7.65998 8.86666L10.4266 10.5267C10.6533 10.66 10.9466 10.5933 11.08 10.3667C11.22 10.14 11.1466 9.83999 10.9133 9.70666L8.33331 8.17333V5.14666C8.33331 4.87999 8.11998 4.66666 7.85331 4.66666Z" fill="white"/>
  </g>
  <defs>
    <clipPath id="clip0_104_322">
      <rect width="16" height="16" fill="white"/>
    </clipPath>
  </defs>
</svg>